<svg width="540" height="540" viewBox="0 0 540 540" xmlns="http://www.w3.org/2000/svg"><defs><filter style="color-interpolation-filters:sRGB" id="a" x="-.047" y="-.046" width="1.094" height="1.082"><feFlood result="flood" flood-opacity="1" flood-color="#000"/><feGaussianBlur result="blur" in="SourceGraphic" stdDeviation="7.5"/><feOffset result="offset" in="blur"/><feComposite result="comp1" operator="in" in="flood" in2="offset"/><feComposite result="comp2" in="SourceGraphic" in2="comp1"/></filter></defs><g transform="translate(14 14)" style="filter:url(#a)"><rect style="fill:#fff;fill-opacity:1;stroke:#fff;stroke-width:10;stroke-linejoin:round;stroke-miterlimit:4;stroke-dasharray:none;stroke-opacity:1;paint-order:markers stroke fill" width="40" height="265" x="81" y="189.5" ry="1.131" rx="1.131"/><path style="fill:#fff;fill-opacity:1;stroke:#fff;stroke-width:10;stroke-linejoin:round;stroke-miterlimit:4;stroke-dasharray:none;stroke-opacity:1;paint-order:markers stroke fill" d="M11 472h110v30H11z"/><rect style="fill:#fff;fill-opacity:1;stroke:#fff;stroke-width:10;stroke-linejoin:round;stroke-miterlimit:4;stroke-dasharray:none;stroke-opacity:1;paint-order:markers stroke fill" width="65" height="65" x="68.5" y="107" ry="1.161" rx="1.161"/><path style="fill:#fff;stroke:#fff;stroke-width:9.99973;stroke-linejoin:round;stroke-miterlimit:4;stroke-dasharray:none;stroke-opacity:1;paint-order:markers stroke fill" d="M501 77.828C501 40.368 391.31 10 256 10S11 40.368 11 77.828s109.69-11.216 245-11.216 245 48.676 245 11.216z"/><g transform="matrix(-1 0 0 1 512 0)"><rect style="fill:#fff;fill-opacity:1;stroke:#fff;stroke-width:10;stroke-linejoin:round;stroke-miterlimit:4;stroke-dasharray:none;stroke-opacity:1;paint-order:markers stroke fill" width="40" height="265" x="81" y="189.5" ry="1.131" rx="1.131"/><path style="fill:#fff;fill-opacity:1;stroke:#fff;stroke-width:10;stroke-linejoin:round;stroke-miterlimit:4;stroke-dasharray:none;stroke-opacity:1;paint-order:markers stroke fill" d="M11 472h110v30H11z"/><rect style="fill:#fff;fill-opacity:1;stroke:#fff;stroke-width:10;stroke-linejoin:round;stroke-miterlimit:4;stroke-dasharray:none;stroke-opacity:1;paint-order:markers stroke fill" width="65" height="65" x="68.5" y="107" ry="1.161" rx="1.161"/></g><path style="fill:#fff;stroke:none;stroke-width:1.45333;stroke-linecap:square;stroke-linejoin:round;stroke-miterlimit:4;stroke-dasharray:none;paint-order:stroke markers fill" d="M220.174 195.5c-2.453-.004-5.03 2.243-4.622 4.628l7.264 71.405c.321 1.881 2.027 3.967 3.962 3.967h58.11c1.935 0 3.642-2.086 3.963-3.967l6.603-71.405c.407-2.385-1.509-4.631-3.962-4.628-23.768.037-47.55.081-71.318 0" transform="translate(42.87 83.67)scale(.83254)"/><path style="fill:#fff;fill-opacity:1;stroke:none;stroke-width:1px;stroke-linecap:butt;stroke-linejoin:miter;stroke-opacity:1" d="m231.994 96.285-10.603 10.604s-46.315 19.71-49.85 23.246c7.803 111.702 22.66 324.205 22.66 324.205s-12.847 9.315-14.14 14.142v38.008c0 .997.999 1.992 1.996 1.992h147.886c.997 0 1.996-.995 1.996-1.992v-38.008c-1.293-4.827-14.14-14.142-14.14-14.142s14.857-212.503 22.66-324.205c-3.535-3.535-49.85-23.246-49.85-23.246l-10.603-10.604ZM202 175c35.994.123 72.006.056 108 0 3.715-.005 6.616 3.392 6 7l-10 108c-.487 2.845-2.07 6-5 6h-89c-2.93 0-5.513-3.155-6-6l-11-108c-.616-3.608 3.285-7.005 7-7" transform="translate(42.87 83.67)scale(.83254)"/><path style="fill:#fff;fill-opacity:1;stroke:none;stroke-width:9.647;stroke-linecap:square;stroke-miterlimit:4;stroke-dasharray:none;stroke-opacity:1;paint-order:stroke markers fill" d="M231.781 4a.78.78 0 0 0-.781.781V78.22a.78.78 0 0 0 .781.781h48.438a.78.78 0 0 0 .781-.781V4.78a.78.78 0 0 0-.781-.781ZM251 17.608h10c.433 0 1 .35 1 .784v46.216c0 .434-.567.784-1 .784h-10c-.433 0-1-.35-1-.784V18.392c0-.434.567-.784 1-.784" transform="translate(42.87 83.67)scale(.83254)"/></g></svg>