<svg width="512" height="512" viewBox="0 0 512 512" xmlns="http://www.w3.org/2000/svg"><path style="fill:#fff;stroke:#fffffb;stroke-width:15;stroke-linecap:round;stroke-linejoin:round;paint-order:stroke markers fill;stroke-dasharray:none" d="M256 39.791s-34.539.718-46.348 3.531c-22.963 5.47-45.776 14.422-63.193 24.797-42.032 25.038-75.26 63.492-91.92 106.381-2.564 6.6-5 12.864-5.414 13.918-.594 1.513-3.4-2.6-13.303-19.5-6.902-11.78-13.286-22.858-14.185-24.617s-3.196-4.387-5.104-5.842c-2.877-2.195-4.114-2.536-7.263-2.004-5.055.854-8.791 5.963-7.881 10.775.908 4.806 39.959 71.726 43.74 74.958 4.558 3.896 8.116 3.03 22.82-5.551a66710 66710 0 0 1 34.7-20.227c24.34-14.178 27.1-16.608 25.93-22.846-.851-4.531-4.722-7.564-9.657-7.564-2.868 0-6.473 1.56-14.613 6.318-22.804 13.33-34.456 19.87-34.795 19.53-.597-.597 6.24-17.544 10.56-26.178 2.249-4.493 7.411-13.12 11.47-19.17 29.765-44.357 73.762-73.73 126.612-84.527C226.423 60.283 256 59.14 256 59.14s29.577 1.143 37.844 2.832c26.404 5.394 50.356 15.28 71.656 29.572 42.261 28.358 71.592 70.6 82.943 119.455 7.455 16.429 20.596 12.015 19.457-4.23-9.245-39.535-29.138-75.09-58.359-104.311-29.941-29.941-64.373-48.937-107.193-59.137-11.81-2.811-46.348-3.53-46.348-3.53m.152 432.393s34.54-.718 46.348-3.531c22.963-5.47 45.777-14.422 63.193-24.797 42.033-25.038 75.26-63.492 91.92-106.38 2.564-6.6 5-12.864 5.414-13.919.594-1.513 3.4 2.6 13.303 19.5 6.902 11.78 13.286 22.858 14.186 24.617.899 1.76 3.196 4.387 5.103 5.842 2.877 2.195 4.114 2.536 7.264 2.004 5.054-.854 8.79-5.963 7.88-10.775-.908-4.805-39.958-71.725-43.74-74.957-4.558-3.896-8.116-3.03-22.82 5.55-6.903 4.029-22.517 13.13-34.7 20.227-24.339 14.179-27.099 16.609-25.929 22.846.85 4.532 4.722 7.564 9.656 7.564 2.868 0 6.473-1.56 14.614-6.318 22.804-13.33 34.455-19.87 34.795-19.53.596.597-6.24 17.544-10.56 26.178-2.25 4.494-7.412 13.12-11.472 19.17-29.764 44.357-73.761 73.73-126.61 84.528-8.267 1.688-37.845 2.832-37.845 2.832s-29.577-1.144-37.843-2.832c-26.404-5.394-50.357-15.28-71.657-29.573-42.26-28.358-71.592-70.6-82.943-119.455-7.455-16.429-20.595-12.015-19.457 4.23 9.245 39.535 29.138 75.09 58.36 104.311 29.94 29.941 64.373 48.937 107.193 59.137 11.808 2.813 46.347 3.531 46.347 3.531" transform="rotate(15 256.076 255.988)"/></svg>